<svg width="96" height="96" viewBox="0 0 96 96" fill="none" xmlns="http://www.w3.org/2000/svg">
  <rect width="96" height="96" rx="48" fill="url(#grad)"/>
  <path d="M36 32H60C67.732 32 74 38.268 74 46V62C74 69.732 67.732 76 60 76H36C28.268 76 22 69.732 22 62V46C22 38.268 28.268 32 36 32Z" fill="white" fill-opacity="0.85"/>
  <path d="M50 24L58 32H42L50 24Z" fill="white" fill-opacity="0.6"/>
  <path d="M54 46C54 43.7909 52.2091 42 50 42C47.7909 42 46 43.7909 46 46C46 48.2091 47.7909 50 50 50C52.2091 50 54 48.2091 54 46Z" fill="#16A34A"/>
  <defs>
    <linearGradient id="grad" x1="18" y1="24" x2="78" y2="78" gradientUnits="userSpaceOnUse">
      <stop stop-color="#16A34A"/>
      <stop offset="1" stop-color="#4ADE80"/>
    </linearGradient>
  </defs>
</svg>
